<svg width="1323" height="822" viewBox="0 0 1323 822" fill="none" xmlns="http://www.w3.org/2000/svg">
<path d="M188.09 722.451C188.09 728.579 186.95 734.316 184.669 739.66C182.389 744.933 179.254 749.565 175.263 753.556C171.344 757.475 166.712 760.575 161.368 762.855C156.094 765.136 150.429 766.276 144.372 766.276H11.1875V744.363H144.372C147.436 744.363 150.287 743.793 152.923 742.653C155.56 741.513 157.84 739.945 159.764 737.95C161.759 735.955 163.327 733.639 164.467 731.002C165.607 728.294 166.178 725.444 166.178 722.451C166.178 719.458 165.607 716.643 164.467 714.007C163.327 711.37 161.759 709.054 159.764 707.059C157.84 705.064 155.56 703.496 152.923 702.356C150.287 701.216 147.436 700.645 144.372 700.645H55.0123C49.0265 700.645 43.3613 699.505 38.0168 697.225C32.6723 694.945 28.0048 691.845 24.0143 687.926C20.095 683.935 16.9595 679.268 14.608 673.923C12.3277 668.579 11.1875 662.878 11.1875 656.821C11.1875 650.835 12.3277 645.17 14.608 639.825C16.9595 634.481 20.095 629.849 24.0143 625.93C28.0048 621.939 32.6723 618.804 38.0168 616.523C43.3613 614.172 49.0265 612.996 55.0123 612.996H177.187V634.908H55.0123C52.0194 634.908 49.169 635.478 46.4611 636.619C43.8245 637.759 41.5085 639.326 39.5133 641.322C37.518 643.317 35.9503 645.669 34.8101 648.376C33.67 651.013 33.0999 653.828 33.0999 656.821C33.0999 659.814 33.67 662.664 34.8101 665.372C35.9503 668.009 37.518 670.324 39.5133 672.32C41.5085 674.315 43.8245 675.883 46.4611 677.023C49.169 678.163 52.0194 678.733 55.0123 678.733H144.372C150.429 678.733 156.094 679.909 161.368 682.26C166.712 684.541 171.344 687.676 175.263 691.667C179.254 695.586 182.389 700.218 184.669 705.562C186.95 710.836 188.09 716.465 188.09 722.451ZM353.128 766.276H331.215V706.097C331.215 700.824 330.218 695.871 328.222 691.239C326.227 686.607 323.519 682.581 320.099 679.161C316.678 675.669 312.652 672.925 308.02 670.93C303.46 668.864 298.543 667.795 293.269 667.723H233.091V766.276H211.178V602.093H233.091V645.918H293.269C301.536 645.918 309.303 647.521 316.571 650.728C323.84 653.863 330.182 658.175 335.598 663.662C341.013 669.077 345.289 675.455 348.424 682.795C351.56 690.063 353.128 697.831 353.128 706.097V766.276ZM528.213 706.097C528.213 714.363 526.645 722.13 523.51 729.399C520.374 736.667 516.099 743.045 510.683 748.532C505.339 753.948 499.032 758.259 491.764 761.466C484.495 764.601 476.728 766.204 468.462 766.276H434.791C426.525 766.204 418.758 764.601 411.489 761.466C404.221 758.259 397.879 753.948 392.463 748.532C387.119 743.045 382.879 736.667 379.743 729.399C376.608 722.13 375.04 714.363 375.04 706.097C375.04 697.831 376.608 690.063 379.743 682.795C382.879 675.455 387.119 669.077 392.463 663.662C397.879 658.175 404.221 653.863 411.489 650.728C418.758 647.521 426.525 645.918 434.791 645.918H468.462C473.949 645.918 479.257 646.631 484.388 648.056C489.519 649.481 494.293 651.512 498.711 654.148C503.129 656.785 507.156 659.956 510.79 663.662C514.424 667.296 517.524 671.358 520.089 675.847C522.655 680.265 524.65 685.04 526.075 690.17C527.5 695.301 528.213 700.61 528.213 706.097ZM506.407 706.097C506.407 700.824 505.41 695.871 503.415 691.239C501.419 686.607 498.711 682.581 495.291 679.161C491.87 675.669 487.844 672.925 483.212 670.93C478.652 668.864 473.735 667.795 468.462 667.723H434.791C429.518 667.795 424.566 668.864 419.934 670.93C415.373 672.925 411.382 675.669 407.962 679.161C404.542 682.581 401.834 686.607 399.838 691.239C397.914 695.871 396.952 700.824 396.952 706.097C396.952 711.37 397.914 716.323 399.838 720.955C401.834 725.586 404.542 729.648 407.962 733.14C411.382 736.56 415.373 739.304 419.934 741.37C424.566 743.366 429.518 744.363 434.791 744.363H468.462C473.735 744.363 478.652 743.366 483.212 741.37C487.844 739.304 491.87 736.56 495.291 733.14C498.711 729.648 501.419 725.586 503.415 720.955C505.41 716.323 506.407 711.37 506.407 706.097ZM694.106 706.097C694.106 714.363 692.538 722.166 689.403 729.506C686.267 736.774 681.992 743.152 676.576 748.639C671.16 754.055 664.818 758.366 657.549 761.573C650.281 764.708 642.514 766.276 634.247 766.276H585.078V744.363H634.247C639.521 744.292 644.438 743.259 648.998 741.264C653.63 739.197 657.656 736.454 661.077 733.033C664.497 729.541 667.205 725.515 669.2 720.955C671.196 716.323 672.193 711.37 672.193 706.097C672.193 700.824 671.196 695.871 669.2 691.239C667.205 686.536 664.497 682.474 661.077 679.054C657.656 675.562 653.63 672.819 648.998 670.823C644.438 668.757 639.521 667.723 634.247 667.723H574.069V810.101H552.156V645.918H634.247C642.514 645.989 650.281 647.628 657.549 650.835C664.818 653.97 671.16 658.282 676.576 663.769C681.992 669.184 686.267 675.526 689.403 682.795C692.538 690.063 694.106 697.831 694.106 706.097ZM879.239 634.908H742.42V766.276H720.507V612.996H879.239V634.908ZM860.426 700.645H753.323V678.733H860.426V700.645ZM941.662 766.276H936.211C930.866 766.276 925.878 765.278 921.246 763.283C916.614 761.288 912.553 758.58 909.061 755.159C905.569 751.667 902.826 747.606 900.83 742.974C898.835 738.271 897.837 733.282 897.837 728.009V602.093H919.75V728.009C919.75 730.29 920.177 732.427 921.033 734.423C921.888 736.347 923.063 738.057 924.56 739.553C926.056 741.05 927.802 742.226 929.797 743.081C931.793 743.936 933.931 744.363 936.211 744.363H941.662V766.276ZM1106.27 706.097C1106.27 714.363 1104.7 722.13 1101.57 729.399C1098.43 736.667 1094.16 743.045 1088.74 748.532C1083.4 753.948 1077.09 758.259 1069.82 761.466C1062.55 764.601 1054.79 766.204 1046.52 766.276H1012.85C1004.58 766.204 996.817 764.601 989.549 761.466C982.28 758.259 975.938 753.948 970.522 748.532C965.178 743.045 960.938 736.667 957.803 729.399C954.667 722.13 953.099 714.363 953.099 706.097C953.099 697.831 954.667 690.063 957.803 682.795C960.938 675.455 965.178 669.077 970.522 663.662C975.938 658.175 982.28 653.863 989.549 650.728C996.817 647.521 1004.58 645.918 1012.85 645.918H1046.52C1052.01 645.918 1057.32 646.631 1062.45 648.056C1067.58 649.481 1072.35 651.512 1076.77 654.148C1081.19 656.785 1085.22 659.956 1088.85 663.662C1092.48 667.296 1095.58 671.358 1098.15 675.847C1100.71 680.265 1102.71 685.04 1104.13 690.17C1105.56 695.301 1106.27 700.61 1106.27 706.097ZM1084.47 706.097C1084.47 700.824 1083.47 695.871 1081.47 691.239C1079.48 686.607 1076.77 682.581 1073.35 679.161C1069.93 675.669 1065.9 672.925 1061.27 670.93C1056.71 668.864 1051.79 667.795 1046.52 667.723H1012.85C1007.58 667.795 1002.63 668.864 997.993 670.93C993.432 672.925 989.442 675.669 986.021 679.161C982.601 682.581 979.893 686.607 977.898 691.239C975.974 695.871 975.012 700.824 975.012 706.097C975.012 711.37 975.974 716.323 977.898 720.955C979.893 725.586 982.601 729.648 986.021 733.14C989.442 736.56 993.432 739.304 997.993 741.37C1002.63 743.366 1007.58 744.363 1012.85 744.363H1046.52C1051.79 744.363 1056.71 743.366 1061.27 741.37C1065.9 739.304 1069.93 736.56 1073.35 733.14C1076.77 729.648 1079.48 725.586 1081.47 720.955C1083.47 716.323 1084.47 711.37 1084.47 706.097ZM1308.51 706.097C1308.51 714.363 1306.94 722.166 1303.8 729.506C1300.67 736.774 1296.39 743.152 1290.98 748.639C1285.56 754.055 1279.22 758.366 1271.95 761.573C1264.68 764.708 1256.92 766.276 1248.65 766.276H1188.04C1179.78 766.276 1172.01 764.708 1164.74 761.573C1157.47 758.366 1151.13 754.055 1145.71 748.639C1140.37 743.152 1136.13 736.774 1132.99 729.506C1129.86 722.166 1128.29 714.363 1128.29 706.097V645.918H1150.2V706.097C1150.2 711.37 1151.17 716.323 1153.09 720.955C1155.09 725.515 1157.79 729.541 1161.21 733.033C1164.63 736.454 1168.62 739.197 1173.19 741.264C1177.82 743.259 1182.77 744.292 1188.04 744.363H1207.5V645.918H1229.2V744.363H1248.65C1253.92 744.292 1258.84 743.259 1263.4 741.264C1268.03 739.197 1272.06 736.454 1275.48 733.033C1278.9 729.541 1281.61 725.515 1283.6 720.955C1285.6 716.323 1286.6 711.37 1286.6 706.097V645.918H1308.51V706.097Z" fill="#1D2C59"/>
<circle cx="666.353" cy="304.368" r="243.786" stroke="#1D2C59" stroke-width="18.2425"/>
<circle cx="666.353" cy="304.368" r="177.45" stroke="#1D2C59" stroke-width="18.2425"/>
<path d="M474.803 10.0002V146.819C503.991 110.334 572.097 76.8894 602.501 64.7277V10.0002H474.803Z" stroke="#1D2C59" stroke-width="18.2425"/>
</svg>
